<?xml version="1.0" encoding="utf-8"?>
<!-- Generator: Adobe Illustrator 24.0.0, SVG Export Plug-In . SVG Version: 6.00 Build 0)  -->
<svg version="1.0" id="Layer_1" xmlns="http://www.w3.org/2000/svg" xmlns:xlink="http://www.w3.org/1999/xlink" x="0px" y="0px"
	 viewBox="0 0 100 100" style="enable-background:new 0 0 100 100;" xml:space="preserve">
<style type="text/css">
	.st0{fill:#FF0066;}
	.st1{fill:#FFFFFF;}
</style>
<circle class="st0" cx="50.29" cy="59.98" r="33.13"/>
<rect x="36.77" y="9.66" class="st0" width="27.03" height="40.73"/>
<path class="st0" d="M67.05,15.37H33.53c-1.15,0-2.08-0.94-2.08-2.08V9.08c0-1.15,0.94-2.08,2.08-2.08h33.52
	c1.15,0,2.08,0.94,2.08,2.08v4.21C69.13,14.44,68.19,15.37,67.05,15.37z"/>
<path class="st1" d="M50.29,62.19c-14.9-4.16-23.37-3.74-27.98-2.52c-0.07,0.83-0.13,1.67-0.13,2.52c0,15.52,12.58,28.1,28.1,28.1
	s28.1-12.58,28.1-28.1c0-0.1-0.01-0.19-0.01-0.29C71.55,64.3,62.15,65.5,50.29,62.19z"/>
<circle class="st0" cx="39.97" cy="68.69" r="3.19"/>
<circle class="st0" cx="61.92" cy="77.76" r="3.19"/>
<circle class="st1" cx="64.41" cy="55.18" r="3.19"/>
<circle class="st1" cx="41.94" cy="41.93" r="3.19"/>
<circle class="st1" cx="56.07" cy="30.69" r="3.19"/>
</svg>
