<svg id="Layer_1" enable-background="new 0 0 512 512" height="512" viewBox="0 0 512 512" width="512" xmlns="http://www.w3.org/2000/svg"><g><g><path d="m454.5 433.013h-397c-5.074 0-9.805-2.565-12.572-6.818s-3.197-9.617-1.143-14.256l115.034-259.701c2.334-5.269 7.479-8.735 13.238-8.917l162.373-5.569c6.08-.207 11.652 3.291 14.149 8.824 39.887 88.415 79.746 176.844 119.596 265.276 2.092 4.642 1.686 10.028-1.077 14.304-2.763 4.275-7.506 6.857-12.598 6.857z" fill="#ff0059"/></g><path d="m468.176 411.851c-39.85-88.432-79.709-176.861-119.596-265.276-2.497-5.533-8.069-9.03-14.149-8.824l-78.972 2.709v292.554h199.041c5.092 0 9.835-2.583 12.599-6.859 2.762-4.276 3.168-9.662 1.077-14.304z" fill="#d20041"/><g><path d="m298.5 512h-86c-7.657 0-14.086-5.768-14.912-13.381l-20-184.226c-.46-4.235.902-8.466 3.748-11.637 2.845-3.17 6.904-4.982 11.164-4.982h126c4.26 0 8.319 1.812 11.164 4.982 2.846 3.171 4.208 7.402 3.748 11.637l-20 184.226c-.826 7.613-7.255 13.381-14.912 13.381z" fill="#4793ff"/></g><g><path d="m309.5 328.448h-108c-23.986 0-43.5-19.696-43.5-43.905v-120.138c0-24.209 19.514-43.905 43.5-43.905l85.948.007c27.183.003 54.369.006 81.552.006.021-14.602.008-47.058.003-59.542l-.003-6.958c0-20.677 16.822-37.5 37.5-37.5s37.5 16.822 37.5 37.5v74c0 37.219-30.28 67.5-67.5 67.5h-23.5v89.029c0 24.21-19.514 43.906-43.5 43.906z" fill="#7dd5f4"/></g><g><path d="m255.5 255.501c-4.648 0-9.035-2.155-11.875-5.836l-27-34.987c-3.219-4.17-4.014-9.723-2.094-14.629l27-69.014c2.25-5.751 7.794-9.535 13.969-9.535s11.719 3.784 13.969 9.535l27 69.014c1.92 4.906 1.125 10.458-2.094 14.629l-27 34.987c-2.84 3.68-7.227 5.836-11.875 5.836z" fill="#007a9f"/></g><path d="m329.664 302.756c-2.845-3.17-6.904-4.982-11.164-4.982h-63.042v214.226h43.042c7.657 0 14.086-5.768 14.912-13.381l20-184.226c.46-4.235-.902-8.466-3.748-11.637z" fill="#525cdd"/><path d="m406.5 16.514c-20.678 0-37.5 16.822-37.5 37.5l.003 6.958c.005 12.483.019 44.94-.003 59.542-27.183 0-54.369-.003-81.552-.006l-31.99-.003v207.943h54.042c23.986 0 43.5-19.696 43.5-43.905v-89.029h23.5c37.22 0 67.5-30.28 67.5-67.5v-74c0-20.678-16.822-37.5-37.5-37.5z" fill="#4793ff"/><path d="m296.469 200.049-27-69.014c-2.25-5.751-7.794-9.535-13.969-9.535-.014 0-.028.002-.042.002v133.997c.014 0 .028.002.042.002 4.648 0 9.035-2.155 11.875-5.836l27-34.987c3.219-4.171 4.014-9.723 2.094-14.629z" fill="#00607f"/><g><path d="m255.5 134.279c-37.021 0-67.14-30.119-67.14-67.139 0-37.021 30.119-67.14 67.14-67.14s67.14 30.119 67.14 67.14c0 37.02-30.12 67.139-67.14 67.139z" fill="#ffe4c1"/></g><path d="m255.5 0c-.014 0-.028.001-.042.001v134.277c.014 0 .028.001.042.001 37.021 0 67.14-30.119 67.14-67.139 0-37.021-30.12-67.14-67.14-67.14z" fill="#fdd1a3"/></g></svg>