<svg xmlns="http://www.w3.org/2000/svg" viewBox="0 0 138 140"><defs><style>.cls-1{fill:#fff;}.cls-2{fill:#a43300;}</style></defs><title>character</title><g id="Layer_2" data-name="Layer 2"><g id="hover"><path class="cls-1" d="M13.43,136.94c-.11,0-.17,0-.2,0a.27.27,0,0,1,0-.17V125.94L8.89,136.69a.2.2,0,0,1-.09.12.9.9,0,0,1-.25,0H7a.9.9,0,0,1-.25,0,.2.2,0,0,1-.09-.12L2.32,125.94v10.78a.28.28,0,0,1,0,.17s-.09,0-.2,0H.24c-.16,0-.24-.07-.24-.22V122.4a.62.62,0,0,1,.06-.35s.16-.07.38-.07H2.8c.09,0,.15,0,.17,0l.09.19,4.7,11.68,4.7-11.68.09-.19s.08,0,.17,0h2.36c.21,0,.34,0,.38.07a.62.62,0,0,1,.06.35v14.33c0,.15-.08.22-.24.22Z"/><path class="cls-1" d="M27.48,135.42a4.76,4.76,0,0,1-1.71,1.36,5.68,5.68,0,0,1-4.48,0,4.63,4.63,0,0,1-1.63-1.25,5.38,5.38,0,0,1-1-1.85,7.84,7.84,0,0,1,0-4.48,5.28,5.28,0,0,1,1-1.84,4.7,4.7,0,0,1,1.62-1.24,5.76,5.76,0,0,1,4.49,0,4.67,4.67,0,0,1,1.63,1.24,5.26,5.26,0,0,1,1,1.84,7.51,7.51,0,0,1,.33,2.24,7.37,7.37,0,0,1-.32,2.19A5.42,5.42,0,0,1,27.48,135.42Zm-3.95-7.8a2.57,2.57,0,0,0-1.34.34,2.81,2.81,0,0,0-.92.88,4.13,4.13,0,0,0-.54,1.23,5.42,5.42,0,0,0,0,2.76,4.26,4.26,0,0,0,.54,1.24,2.77,2.77,0,0,0,.92.89,2.83,2.83,0,0,0,2.68,0,2.76,2.76,0,0,0,.92-.89,4.26,4.26,0,0,0,.54-1.24,5.44,5.44,0,0,0,.18-1.38,5.37,5.37,0,0,0-.18-1.36,4.13,4.13,0,0,0-.54-1.23,2.9,2.9,0,0,0-.92-.89A2.51,2.51,0,0,0,23.53,127.62Z"/><path class="cls-1" d="M38,136.92a.21.21,0,0,1-.17-.09.3.3,0,0,1-.07-.19v-6.31a3.68,3.68,0,0,0-.45-2.06,1.59,1.59,0,0,0-1.4-.63,2.42,2.42,0,0,0-1.93.72,3.12,3.12,0,0,0-.62,2.09v6.21q0,.26-.24.26H31.47a.21.21,0,0,1-.17-.09.3.3,0,0,1-.07-.19v-7.9q0-.75,0-1.45t0-1.09c0-.17.07-.26.28-.26H33c.15,0,.2.05.18.16l0,.72a4.61,4.61,0,0,1,1.19-.82,3.61,3.61,0,0,1,1.61-.34,3.7,3.7,0,0,1,2.91,1.12,4.72,4.72,0,0,1,1,3.24v6.63q0,.26-.24.26Z"/><path class="cls-1" d="M49.57,137a.68.68,0,0,1-.31,0,.59.59,0,0,1-.19-.21l-3.18-4.55L45,133.23v3.49c0,.16-.09.24-.26.24H43.1a.24.24,0,0,1-.24-.24V121.09a.24.24,0,0,1,.24-.24h1.61a.25.25,0,0,1,.19.07.23.23,0,0,1,.07.17v9.13l3.77-4.05a.44.44,0,0,1,.32-.18h2q.38,0,.12.28l-3.87,4.29,4.31,6.15c.13.17.09.26-.14.26Z"/><path class="cls-1" d="M61.83,131.94a.3.3,0,0,1-.09.24.28.28,0,0,1-.19.08H55a3.61,3.61,0,0,0,.83,2.17,2.52,2.52,0,0,0,2,.84,7.59,7.59,0,0,0,1.49-.17,4.79,4.79,0,0,0,1.53-.59c.09-.05.15,0,.18,0a.69.69,0,0,1,0,.26v1.37a.54.54,0,0,1-.06.28.63.63,0,0,1-.24.2,4.63,4.63,0,0,1-1.4.46,9.61,9.61,0,0,1-1.64.14A4.62,4.62,0,0,1,54,135.76a6.52,6.52,0,0,1-1.26-4.34,8.06,8.06,0,0,1,.28-2.1,5.89,5.89,0,0,1,.84-1.85,4.35,4.35,0,0,1,1.44-1.31,4.11,4.11,0,0,1,2.06-.5,4.27,4.27,0,0,1,2.05.46,3.92,3.92,0,0,1,1.38,1.23,5.18,5.18,0,0,1,.77,1.81,9.77,9.77,0,0,1,.24,2.2c0,.09,0,.2,0,.32S61.83,131.89,61.83,131.94Zm-4.35-4.37a1.88,1.88,0,0,0-1,.24,2.46,2.46,0,0,0-.71.62,3.28,3.28,0,0,0-.49.87,5,5,0,0,0-.27,1h4.54a3.35,3.35,0,0,0-.13-.87,3.23,3.23,0,0,0-.39-.88,2.41,2.41,0,0,0-.65-.68A1.62,1.62,0,0,0,57.48,127.58Z"/><path class="cls-1" d="M66.59,139.4a2.65,2.65,0,0,1-1.79.6,6.9,6.9,0,0,1-.75,0,1.77,1.77,0,0,1-.6-.16.4.4,0,0,1-.16-.11.22.22,0,0,1,0-.19l.12-1.31q0-.26.22-.18a4,4,0,0,0,.56.11l.48,0a1.22,1.22,0,0,0,.54-.1.89.89,0,0,0,.32-.26l.17-.34.23-.48q.12-.27.23-.57t.19-.6l-3.39-9.64q-.1-.24.16-.24H64.9q.2,0,.24.1l2.2,6.58L69.59,126c0-.07.11-.1.24-.1h1.85c.17,0,.22.08.16.24l-4,11.19A4.79,4.79,0,0,1,66.59,139.4Z"/><path class="cls-1" d="M89.41,136.79q-.58.16-1.39.3a11.34,11.34,0,0,1-1.89.14,8.14,8.14,0,0,1-3.07-.56,6.6,6.6,0,0,1-2.35-1.58,7.15,7.15,0,0,1-1.51-2.45,9.7,9.7,0,0,1,0-6.33,7,7,0,0,1,1.5-2.45,6.72,6.72,0,0,1,2.35-1.59,8.07,8.07,0,0,1,3.09-.57,16.73,16.73,0,0,1,1.75.09,7.94,7.94,0,0,1,1.55.31c.15,0,.23.09.26.15a.61.61,0,0,1,0,.29l0,1.47q0,.32-.1.32a1.24,1.24,0,0,1-.34-.08,10.52,10.52,0,0,0-3.1-.46,5.47,5.47,0,0,0-2.19.42,4.54,4.54,0,0,0-1.63,1.17,5.13,5.13,0,0,0-1,1.8,7.21,7.21,0,0,0-.35,2.29,6.62,6.62,0,0,0,.38,2.27,5.45,5.45,0,0,0,1.06,1.81,4.88,4.88,0,0,0,3.72,1.64,14.65,14.65,0,0,0,1.76-.09,6.29,6.29,0,0,0,1.34-.31q.26-.1.34-.06c.05,0,.08.09.08.18l.08,1.41a.62.62,0,0,1,0,.32A.41.41,0,0,1,89.41,136.79Z"/><path class="cls-1" d="M100.76,135.42a4.76,4.76,0,0,1-1.71,1.36,5.68,5.68,0,0,1-4.48,0,4.63,4.63,0,0,1-1.63-1.25,5.36,5.36,0,0,1-1-1.85,7.84,7.84,0,0,1,0-4.48,5.26,5.26,0,0,1,1-1.84,4.69,4.69,0,0,1,1.62-1.24,5.75,5.75,0,0,1,4.49,0,4.68,4.68,0,0,1,1.63,1.24,5.27,5.27,0,0,1,1,1.84,7.48,7.48,0,0,1,.33,2.24,7.36,7.36,0,0,1-.32,2.19A5.46,5.46,0,0,1,100.76,135.42Zm-3.95-7.8a2.57,2.57,0,0,0-1.34.34,2.81,2.81,0,0,0-.92.88,4.15,4.15,0,0,0-.54,1.23,5.42,5.42,0,0,0,0,2.76,4.29,4.29,0,0,0,.54,1.24,2.78,2.78,0,0,0,.92.89,2.83,2.83,0,0,0,2.68,0,2.77,2.77,0,0,0,.92-.89,4.27,4.27,0,0,0,.54-1.24,5.44,5.44,0,0,0,.18-1.38,5.36,5.36,0,0,0-.18-1.36,4.13,4.13,0,0,0-.54-1.23,2.91,2.91,0,0,0-.92-.89A2.52,2.52,0,0,0,96.81,127.62Z"/><path class="cls-1" d="M109.43,122.64l-.5-.11a2.64,2.64,0,0,0-.5,0,.91.91,0,0,0-.71.25,1.5,1.5,0,0,0-.32.62c0,.13-.05.31-.08.54a6.56,6.56,0,0,0,0,.75V126h1.9a.21.21,0,0,1,.24.24v1.53a.24.24,0,0,1-.24.24h-1.9v8.75a.21.21,0,0,1-.24.24h-1.63a.21.21,0,0,1-.24-.24V128h-1.67a.24.24,0,0,1-.24-.24v-1.53a.24.24,0,0,1,.24-.24h1.65v-1.19a10.53,10.53,0,0,1,.13-1.73,3.87,3.87,0,0,1,.49-1.37,2.47,2.47,0,0,1,.9-.82,3,3,0,0,1,1.48-.33,6.18,6.18,0,0,1,.78,0,3,3,0,0,1,.61.13.29.29,0,0,1,.14.28l-.08,1.35Q109.61,122.68,109.43,122.64Z"/><path class="cls-1" d="M116.63,122.64l-.5-.11a2.64,2.64,0,0,0-.5,0,.91.91,0,0,0-.71.25,1.5,1.5,0,0,0-.32.62c0,.13-.05.31-.08.54a6.56,6.56,0,0,0,0,.75V126h1.9a.21.21,0,0,1,.24.24v1.53a.24.24,0,0,1-.24.24h-1.9v8.75a.21.21,0,0,1-.24.24h-1.63a.21.21,0,0,1-.24-.24V128h-1.67a.24.24,0,0,1-.24-.24v-1.53a.24.24,0,0,1,.24-.24h1.65v-1.19a10.53,10.53,0,0,1,.13-1.73,3.87,3.87,0,0,1,.49-1.37,2.47,2.47,0,0,1,.9-.82,3,3,0,0,1,1.48-.33,6.18,6.18,0,0,1,.78,0,3,3,0,0,1,.61.13.29.29,0,0,1,.14.28l-.08,1.35C116.81,122.56,116.75,122.66,116.63,122.64Z"/><path class="cls-1" d="M127.17,131.94a.3.3,0,0,1-.09.24.28.28,0,0,1-.19.08h-6.53a3.61,3.61,0,0,0,.83,2.17,2.52,2.52,0,0,0,2,.84,7.59,7.59,0,0,0,1.49-.17,4.79,4.79,0,0,0,1.53-.59c.09-.05.15,0,.18,0a.69.69,0,0,1,0,.26v1.37a.54.54,0,0,1-.06.28.63.63,0,0,1-.24.2,4.63,4.63,0,0,1-1.4.46,9.61,9.61,0,0,1-1.64.14,4.62,4.62,0,0,1-3.72-1.48,6.52,6.52,0,0,1-1.26-4.34,8.06,8.06,0,0,1,.28-2.1,5.89,5.89,0,0,1,.84-1.85,4.35,4.35,0,0,1,1.44-1.31,4.11,4.11,0,0,1,2.06-.5,4.27,4.27,0,0,1,2.05.46,3.92,3.92,0,0,1,1.38,1.23,5.18,5.18,0,0,1,.77,1.81,9.77,9.77,0,0,1,.24,2.2c0,.09,0,.2,0,.32S127.17,131.89,127.17,131.94Zm-4.35-4.37a1.88,1.88,0,0,0-1,.24,2.46,2.46,0,0,0-.71.62,3.29,3.29,0,0,0-.49.87,5,5,0,0,0-.27,1h4.54a3.35,3.35,0,0,0-.13-.87,3.23,3.23,0,0,0-.39-.88,2.41,2.41,0,0,0-.66-.68A1.62,1.62,0,0,0,122.83,127.58Z"/><path class="cls-1" d="M138,131.94a.3.3,0,0,1-.09.24.28.28,0,0,1-.19.08h-6.53a3.62,3.62,0,0,0,.83,2.17,2.52,2.52,0,0,0,2,.84,7.6,7.6,0,0,0,1.49-.17,4.8,4.8,0,0,0,1.53-.59c.09-.05.15,0,.18,0a.71.71,0,0,1,0,.26v1.37a.54.54,0,0,1-.06.28.63.63,0,0,1-.24.2,4.64,4.64,0,0,1-1.4.46,9.61,9.61,0,0,1-1.64.14,4.62,4.62,0,0,1-3.72-1.48,6.52,6.52,0,0,1-1.26-4.34,8.06,8.06,0,0,1,.28-2.1,5.91,5.91,0,0,1,.84-1.85,4.34,4.34,0,0,1,1.44-1.31,4.11,4.11,0,0,1,2.06-.5,4.26,4.26,0,0,1,2.05.46,3.93,3.93,0,0,1,1.38,1.23,5.18,5.18,0,0,1,.77,1.81,9.77,9.77,0,0,1,.24,2.2c0,.09,0,.2,0,.32S138,131.89,138,131.94Zm-4.35-4.37a1.89,1.89,0,0,0-1,.24,2.47,2.47,0,0,0-.71.62,3.28,3.28,0,0,0-.49.87,5,5,0,0,0-.27,1h4.54a3.39,3.39,0,0,0-.13-.87,3.2,3.2,0,0,0-.39-.88,2.39,2.39,0,0,0-.65-.68A1.62,1.62,0,0,0,133.64,127.58Z"/><path class="cls-2" d="M61.45,113.63c-.62,0-1.25,0-1.89,0h-.11c-15-.72-27.9-9.57-32.19-22l0-.06,0-.06a37.41,37.41,0,0,1-1.46-3.79l0-.12-.06-.11a15,15,0,0,0-2.12-3.08A50.79,50.79,0,0,1,10.48,48.78c.41-14.52,5.6-26.6,15-34.92C34.25,6.09,46.27,1.8,60.22,1.48l1.63,0C76,1.46,88.73,5.9,97.69,14c9.65,8.7,14.75,21.25,14.75,36.29a50.88,50.88,0,0,1-13,34,15.57,15.57,0,0,0-2.19,3.19l-.06.11,0,.12a37.4,37.4,0,0,1-1.44,3.74l0,.06,0,.06c-4.3,12.45-17.24,21.3-32.19,22h-.11C62.7,113.62,62.06,113.63,61.45,113.63Z"/><path class="cls-1" d="M60.19,0C32.35.67,9.92,17.13,9,48.74A52.25,52.25,0,0,0,22.45,85.31a13.55,13.55,0,0,1,1.91,2.78A38.69,38.69,0,0,0,25.88,92c4.41,12.79,17.63,22.24,33.5,23h.1q1,0,2,0t2,0h.1c15.87-.76,29.09-10.21,33.5-23a38.64,38.64,0,0,0,1.5-3.89,14,14,0,0,1,2-2.89,52.23,52.23,0,0,0,13.4-35C113.89,17,89.73-.67,60.19,0ZM31.68,69.33l.28-.58-.54-.35a38.54,38.54,0,0,1-6.55-5.76c-3.51-3.86-7.13-9.42-7.13-16,0-15.26,4.16-25.81,12.72-32.26,7-5.25,17.11-7.81,31-7.81s24,2.55,31,7.81c8.56,6.44,12.72,17,12.72,32.26,0,6.59-3.62,12.16-7.13,16a38.66,38.66,0,0,1-6.55,5.76l-.54.35.28.58c0,.07,3.37,7.1,3.37,14.3,0,6.59-2.06,11.87-6.13,15.71-5.44,5.14-14.53,7.74-27,7.74s-21.56-2.6-27-7.74c-4.07-3.84-6.13-9.12-6.13-15.71C28.32,76.42,31.65,69.4,31.68,69.33Z"/><path class="cls-1" d="M83.66,64.47c4.74,0,9-2.81,11.87-7.24a24.94,24.94,0,0,0,3.79-13.52c0-11.45-7-20.76-15.66-20.76-7.09,0-13.1,6.29-15,14.88A27,27,0,0,0,68,43.71C68,55.15,75,64.47,83.66,64.47ZM70.07,38.12c1.77-7.93,7.19-13.72,13.59-13.72,7.83,0,14.2,8.66,14.2,19.3a25.4,25.4,0,0,1-.93,6.87c0-6.21-3.78-11.24-8.41-11.24a6.54,6.54,0,0,0-3,.75A6.18,6.18,0,0,1,87.63,45a7.34,7.34,0,0,1-.28,2c-.61,2.12-2.13,3.62-3.92,3.62a3.87,3.87,0,0,1-3.18-2,15.09,15.09,0,0,0-.13,2c0,6.17,3.69,11.18,8.28,11.28A10.84,10.84,0,0,1,83.66,63c-7.83,0-14.2-8.66-14.2-19.3A25.69,25.69,0,0,1,70.07,38.12Z"/><path class="cls-1" d="M45.79,64.47c8.64,0,15.66-9.31,15.66-20.76a26.88,26.88,0,0,0-.8-6.54c-2.07-8.25-7.95-14.22-14.86-14.22-8.64,0-15.66,9.31-15.66,20.76a26.61,26.61,0,0,0,1.14,7.76C33.59,59.08,39.22,64.47,45.79,64.47Zm0-40.06c6.16,0,11.41,5.36,13.38,12.82a25.8,25.8,0,0,1-.11,13.35c0-6.21-3.78-11.24-8.41-11.24a6.54,6.54,0,0,0-3,.75A6.18,6.18,0,0,1,49.75,45c0,3.12-1.88,5.65-4.21,5.65a3.87,3.87,0,0,1-3.18-2,15.09,15.09,0,0,0-.13,2c0,6.17,3.69,11.18,8.28,11.28A10.84,10.84,0,0,1,45.79,63c-6.17,0-11.43-5.37-13.39-12.86a25.5,25.5,0,0,1-.82-6.44C31.58,33.06,38,24.41,45.79,24.41Z"/><path class="cls-1" d="M60.85,72.6a3.91,3.91,0,0,0-1.45-1,4.65,4.65,0,0,0-1.65-.26,6.28,6.28,0,0,0-1.6.17,4.64,4.64,0,0,0-2.59,1.83,4.26,4.26,0,0,0-.73,2.92h0A4.55,4.55,0,0,1,54,73.73a4.14,4.14,0,0,1,2.33-1.22,5.39,5.39,0,0,1,2.57.28,3.67,3.67,0,0,1,1.62,1.82.7.7,0,0,0,1.23,0h0a6.21,6.21,0,0,1,2.83-2.52,6.14,6.14,0,0,1,3.79-.35,6.3,6.3,0,0,1,3.37,2,7,7,0,0,1,1.69,3.77h0a6.25,6.25,0,0,0-1.06-4.26,6.75,6.75,0,0,0-3.69-2.7A7,7,0,0,0,61.17,73C61.07,72.87,61,72.73,60.85,72.6Z"/><path class="cls-1" d="M69.58,77.5c0-.08,0-.15,0-.23-.08-2-1.18-3.59-2.53-3.59S64.69,75.11,64.52,77c0,.17,0,.35,0,.53,0,2.11,1.14,3.82,2.55,3.82S69.58,79.61,69.58,77.5Z"/><path class="cls-1" d="M58.59,77.5a3.44,3.44,0,0,0-.12-.89c-.24-.88-.81-1.5-1.48-1.5s-1.16.55-1.42,1.33a3.35,3.35,0,0,0-.17,1.06c0,1.32.71,2.39,1.6,2.39S58.59,78.82,58.59,77.5Z"/><path class="cls-1" d="M77.57,88.13A12.88,12.88,0,0,0,76,88c-.5,0-1,0-1.49,0a25.22,25.22,0,0,0-2.92.3A24.34,24.34,0,0,0,66,89.89a24.88,24.88,0,0,0-5,2.77,26.15,26.15,0,0,0-2.22,1.75c-.71.61-1.35,1.3-2,1.95h0c.75-.55,1.47-1.15,2.24-1.66a25.6,25.6,0,0,1,2.38-1.41,23.79,23.79,0,0,1,5.07-2,22.52,22.52,0,0,1,5.31-.79,22.24,22.24,0,0,1,2.47.06h.17c.43.05.87.09,1.29.17a10.29,10.29,0,0,1,1.19.25h0l.18,0a1.46,1.46,0,1,0,.41-2.89Z"/></g></g></svg>