<svg xmlns="http://www.w3.org/2000/svg" viewBox="0 0 429.05 133.42"><defs><style>.cls-1{fill:#fff;}</style></defs><title>monfee_svg_logo</title><g id="Layer_2" data-name="Layer 2"><g id="Layer_1-2" data-name="Layer 1"><path class="cls-1" d="M297.57,1.25a19.17,19.17,0,0,0-7,4,19.63,19.63,0,0,0-4.92,7A26.3,26.3,0,0,0,283.8,22.7V33.58H259.32V21.87q0-5.84,5-5.84H272V0h-7.85a26.46,26.46,0,0,0-8.1,1.25,19.17,19.17,0,0,0-7,4,19.63,19.63,0,0,0-4.92,7A26.3,26.3,0,0,0,242.3,22.7V33.58H226v14H242.3v71.27h17V47.57H283.8v71.27h17V47.57h12.69v-14H300.82V21.87q0-5.84,5-5.84h7.68V0h-7.85A26.46,26.46,0,0,0,297.57,1.25Z"/><path class="cls-1" d="M360.53,39.81a22.38,22.38,0,0,0-8-5.59,27.07,27.07,0,0,0-10.6-2,26.2,26.2,0,0,0-13.52,3.34,22.44,22.44,0,0,0-11.18,16.52,62.66,62.66,0,0,0-.67,9.51V89.47a62.61,62.61,0,0,0,.67,9.51,22.44,22.44,0,0,0,11.18,16.52,26.17,26.17,0,0,0,13.52,3.34,26.45,26.45,0,0,0,10.52-2,24,24,0,0,0,8-5.51,22.18,22.18,0,0,0,5.09-8,28.27,28.27,0,0,0,1.75-10h-17A15.3,15.3,0,0,1,348.34,99q-1.59,2.84-6.43,2.84a8.41,8.41,0,0,1-6.09-2.17,8.17,8.17,0,0,1-2.25-6.18V82h33.72V58.59a30.17,30.17,0,0,0-1.75-10.35A25.15,25.15,0,0,0,360.53,39.81ZM350.26,68.6H333.57V58.92q0-4.84,2.25-7.26a8.88,8.88,0,0,1,12.18,0q2.25,2.42,2.25,7.26Z"/><path class="cls-1" d="M429,82V58.59a30.17,30.17,0,0,0-1.75-10.35,25.15,25.15,0,0,0-5-8.43,22.38,22.38,0,0,0-8-5.59,27.07,27.07,0,0,0-10.6-2,26.2,26.2,0,0,0-13.52,3.34A22.44,22.44,0,0,0,379,52.08a62.7,62.7,0,0,0-.67,9.51V89.47A62.64,62.64,0,0,0,379,99a22.44,22.44,0,0,0,11.18,16.52,26.17,26.17,0,0,0,13.52,3.34,26.45,26.45,0,0,0,10.52-2,24,24,0,0,0,8-5.51,22.18,22.18,0,0,0,5.09-8,28.27,28.27,0,0,0,1.75-10H412A15.3,15.3,0,0,1,410.1,99q-1.59,2.84-6.43,2.84a8.41,8.41,0,0,1-6.09-2.17,8.17,8.17,0,0,1-2.25-6.18V82Zm-33.72-23q0-4.84,2.25-7.26a8.88,8.88,0,0,1,12.18,0Q412,54.08,412,58.92V68.6H395.33Z"/><path class="cls-1" d="M167.63,58.7c0-.31,0-.61,0-.92v0q-.06-1.2-.16-2.34l0-.18h0q-.2-2.14-.55-4.12l-.07-.41h0c-.17-.93-.37-1.85-.6-2.72h0c-.07-.29-.16-.57-.24-.85s-.19-.68-.29-1h0c-.12-.39-.25-.76-.39-1.14-.08-.21-.15-.43-.23-.64l0,0a29.9,29.9,0,0,0-1.29-2.91l0,0A26.79,26.79,0,0,0,162.34,39c-.15-.24-.31-.49-.47-.72h0q-.54-.77-1.12-1.5h0c-.26-.32-.53-.63-.81-.94l-.29-.33h0l-.14-.14c-.34-.36-.68-.71-1-1h0q-.61-.57-1.26-1.11c-.28-.23-.56-.47-.85-.69-6.19-4.66-15.18-6.92-27.48-6.92s-21.28,2.26-27.48,6.92c-.29.22-.57.45-.85.69a24.8,24.8,0,0,0-2.49,2.35h0q-.54.58-1,1.2h0l-.08.1h0q-.48.6-.93,1.24h0l-.11.15h0c-.16.23-.31.48-.47.72a27.35,27.35,0,0,0-1.81,3.28l-.18.38h0l-.15.35h0c-.14.31-.26.64-.39,1s-.21.54-.31.81h0l-.09.27c-.18.52-.36,1.06-.52,1.6h0l-.08.3q-.24.82-.44,1.67h0c0,.21-.09.42-.14.62a48.32,48.32,0,0,0-1,6.67c0,.15,0,.3,0,.45h0c0,.64-.08,1.3-.11,2,0,.12,0,.25,0,.37h0q0,1.2,0,2.44c0,5.85,3.21,10.79,6.32,14.21a34.17,34.17,0,0,0,5.81,5.11l.48.31-.25.51a33.83,33.83,0,0,0-3,12.68c0,5.84,1.83,10.53,5.44,13.93,4.83,4.56,12.89,6.87,23.95,6.87s19.12-2.31,23.95-6.87c3.61-3.4,5.44-8.09,5.44-13.93a33.84,33.84,0,0,0-3-12.68l-.25-.51.48-.31a34.29,34.29,0,0,0,5.81-5.11c3.12-3.42,6.33-8.36,6.33-14.2q0-1.24,0-2.44Z"/><path class="cls-1" d="M218.69,37.89A14.71,14.71,0,0,0,213,34.3a19.52,19.52,0,0,0-6.34-1.09H178.33a48.73,48.73,0,0,0-7.42-9.29C160.25,13.51,144.84,8,127.53,8.4,105.87,8.91,89,18.07,79.6,33.22H67.77v.06c-.5,0-1-.06-1.5-.06q-6.85,0-10.68,2.5a35.72,35.72,0,0,0-7,6,27.49,27.49,0,0,0-6-5.84,15.21,15.21,0,0,0-9.18-2.67H9.09a8.89,8.89,0,0,0-9.09,9v76.62H17V61.93q0-5.67,1.84-8.68t6.68-3a7.51,7.51,0,0,1,6.18,2.67,11.34,11.34,0,0,1,2.17,7.34v58.59h17V61.93q0-5.67,1.84-8.68t6.68-3a7.51,7.51,0,0,1,6.18,2.67,11.34,11.34,0,0,1,2.17,7.34v58.59H95.45a44.26,44.26,0,0,0,31.12,14.51h.11c.75,0,1.5.06,2.22.06s1.47,0,2.17-.05h.14a44.29,44.29,0,0,0,31.14-14.51h28V61.93q0-5.67,1.84-8.68t6.68-3A7.51,7.51,0,0,1,205,52.91a11.34,11.34,0,0,1,2.17,7.34v58.59h17V53.91a27,27,0,0,0-1.5-9.6A18.1,18.1,0,0,0,218.69,37.89ZM167.45,98.25a13.86,13.86,0,0,0-2,2.85,38.14,38.14,0,0,1-1.48,3.84,31.64,31.64,0,0,1-9.81,13.9,39.26,39.26,0,0,1-23.26,8.8h-.1q-1,0-1.94,0t-1.94,0h-.1a39.27,39.27,0,0,1-23.26-8.8,31.64,31.64,0,0,1-9.81-13.9,38.22,38.22,0,0,1-1.5-3.89,13.36,13.36,0,0,0-1.89-2.74,51.57,51.57,0,0,1-13.25-36.1c.34-11.83,3.73-21.5,9.31-29,9.14-12.28,24.14-18.7,41.19-19.1,18.13-.42,34.2,6.16,43.77,19.1,5.82,7.87,9.23,18.08,9.23,30.5A51.55,51.55,0,0,1,167.45,98.25Z"/></g></g></svg>