<?xml version="1.0" standalone="no"?>
<!DOCTYPE svg PUBLIC "-//W3C//DTD SVG 1.1//EN" "http://www.w3.org/Graphics/SVG/1.1/DTD/svg11.dtd" >
<svg xmlns="http://www.w3.org/2000/svg" xmlns:xlink="http://www.w3.org/1999/xlink" version="1.1">
<metadata>
Created by FontForge 20170731 at Wed Oct  7 04:26:17 2020
 By Aleksey,,,
</metadata>
<defs>
<font id="NotoSansKR-Black-Alphabetic" horiz-adv-x="2048" vert-adv-y="2048" >
  <font-face 
    font-family="NotoSansKR-Black-Alphabetic"
    font-weight="900"
    font-stretch="normal"
    units-per-em="2048"
    panose-1="2 0 10 3 0 0 0 0 0 0"
    ascent="1638"
    descent="-410"
    bbox="0 -492 2044 1737"
    underline-thickness="102"
    underline-position="-307"
    unicode-range="U+FF21-FF5A"
  />
<missing-glyph horiz-adv-x="748" 
d="M68 0v1365h544v-1365h-544zM136 68h408v1229h-408v-1229z" />
    <glyph glyph-name=".notdef" horiz-adv-x="748" 
d="M68 0v1365h544v-1365h-544zM136 68h408v1229h-408v-1229z" />
    <glyph glyph-name=".null" horiz-adv-x="0" vert-adv-y="0" 
 />
    <glyph glyph-name="nonmarkingreturn" horiz-adv-x="682" 
 />
    <glyph glyph-name="uniE690" unicode="&#xff21;" 
d="M1386 0l-100 348h-536l-99 -348h-391l524 1532h471l537 -1532h-406zM827 631h381l-39 131q-26 88 -79.5 267t-69.5 231h-8q-27 -96 -84 -289t-62 -209z" />
    <glyph glyph-name="uniE691" unicode="&#xff22;" 
d="M434 0v1532h580q111 0 201 -11t169.5 -38.5t133 -70.5t84 -110t30.5 -155q0 -107 -57.5 -201.5t-157.5 -128.5v-8q138 -32 218.5 -122t80.5 -236q0 -152 -83 -254.5t-226.5 -149.5t-343.5 -47h-629zM801 920h229q110 0 175 44t65 126q0 88 -60.5 125.5t-179.5 37.5h-229
v-333zM801 281h266q285 0 285 194q0 91 -71.5 132.5t-213.5 41.5h-266v-368z" />
    <glyph glyph-name="uniE692" unicode="&#xff23;" 
d="M1729 203q-228 -228 -553 -228q-167 0 -308.5 50t-248 145.5t-166.5 245t-60 338.5q0 250 102 433t278 276t405 93q296 0 522 -204l-199 -236q-159 127 -317 127q-189 0 -302.5 -127.5t-113.5 -349.5q0 -224 114.5 -347.5t309.5 -123.5q96 0 185 41.5t157 105.5z" />
    <glyph glyph-name="uniE693" unicode="&#xff24;" 
d="M395 0v1532h473q195 0 349 -44t267.5 -134t174.5 -236.5t61 -343.5q0 -195 -60.5 -344.5t-171.5 -242.5t-261.5 -140t-335.5 -47h-496zM758 295h94q112 0 197 22.5t153.5 75t104.5 148.5t36 233q0 110 -24.5 192.5t-66.5 134t-105.5 83.5t-134 44.5t-160.5 12.5h-94v-946
z" />
    <glyph glyph-name="uniE694" unicode="&#xff25;" 
d="M512 0v1532h1071v-303h-706v-291h524v-307h-524v-324h733v-307h-1098z" />
    <glyph glyph-name="uniE695" unicode="&#xff26;" 
d="M539 0v1532h1081v-303h-717v-340h535v-307h-535v-582h-364z" />
    <glyph glyph-name="uniE696" unicode="&#xff27;" 
d="M1704 162q-222 -187 -553 -187q-178 0 -328.5 50.5t-262.5 146.5t-175 245t-63 337q0 185 64 338t175 253.5t258 155.5t314 55q323 0 550 -202l-204 -234q-75 60 -152 91.5t-182 31.5q-190 0 -319.5 -130t-129.5 -347q0 -227 129.5 -351t366.5 -124q49 0 103 11.5
t85 29.5v239h-295v299h619v-708z" />
    <glyph glyph-name="uniE697" unicode="&#xff28;" 
d="M348 0v1532h367v-588h620v588h363v-1532h-363v627h-620v-627h-367z" />
    <glyph glyph-name="uniE698" unicode="&#xff29;" 
d="M434 0v303h406v922h-406v307h1188v-307h-414v-922h414v-303h-1188z" />
    <glyph glyph-name="uniE699" unicode="&#xff2a;" 
d="M1499 520q0 -114 -34 -211.5t-99 -172.5t-168.5 -118t-234.5 -43q-194 0 -326 73.5t-225 213.5l250 191q47 -76 112.5 -119t134.5 -43q224 0 224 258v983h366v-1012z" />
    <glyph glyph-name="uniE69A" unicode="&#xff2b;" 
d="M416 0v1532h366v-633h6l531 633h414l-525 -619l617 -913h-408l-424 643l-211 -250v-393h-366z" />
    <glyph glyph-name="uniE69B" unicode="&#xff2c;" 
d="M547 0v1532h366v-1225h697v-307h-1063z" />
    <glyph glyph-name="uniE69C" unicode="&#xff2d;" 
d="M231 0v1532h396l291 -666q100 -268 104 -278h10q13 34 51 131t58 147l276 666h398v-1532h-334v522q0 195 45 537h-10l-150 -373l-246 -557h-200l-248 557l-148 373h-8q43 -363 43 -537v-522h-328z" />
    <glyph glyph-name="uniE69D" unicode="&#xff2e;" 
d="M362 0v1532h373l432 -715l203 -362h10q-45 321 -45 573v504h348v-1532h-372l-432 721l-199 358h-12q43 -411 43 -573v-506h-349z" />
    <glyph glyph-name="uniE69E" unicode="&#xff2f;" 
d="M1788 774q0 -375 -204.5 -587t-559.5 -212q-167 0 -308 55t-242.5 156t-158.5 252t-57 336q0 184 56.5 332.5t157.5 246.5t242 150.5t310 52.5t309.5 -52.5t241.5 -151t157 -246.5t56 -332zM633 774q0 -223 106.5 -353t284.5 -130q179 0 285 130t106 353
q0 220 -105 344.5t-286 124.5t-286 -124.5t-105 -344.5z" />
    <glyph glyph-name="uniE69F" unicode="&#xff30;" 
d="M444 0v1532h580q670 0 670 -500q0 -105 -33.5 -192.5t-93.5 -148.5t-143 -103t-180.5 -62t-207.5 -20h-225v-506h-367zM811 795h205q321 0 321 237q0 114 -84 162.5t-247 48.5h-195v-448z" />
    <glyph glyph-name="uniE6A0" unicode="&#xff31;" 
d="M1833 -106l68 -267q-116 -57 -312 -57q-268 0 -452 112t-283 306q-276 55 -437 261t-161 525q0 244 98 422.5t269 269t395 90.5t396 -90.5t271 -269t99 -422.5q0 -301 -145 -503t-394 -269q53 -72 164 -107.5t227 -35.5q94 0 197 35zM1018 270q179 0 286 134t107 370
q0 219 -107 344t-286 125t-284 -125t-105 -344q0 -237 104.5 -370.5t284.5 -133.5z" />
    <glyph glyph-name="uniE6A1" unicode="&#xff32;" 
d="M1769 0h-413l-330 537h-244v-537h-346v1532h582q659 0 659 -483q0 -159 -81 -273t-220 -172zM782 1243v-418h211q159 0 242.5 57.5t83.5 166.5q0 106 -79.5 150t-246.5 44h-211z" />
    <glyph glyph-name="uniE6A2" unicode="&#xff33;" 
d="M1667 444q0 -132 -75 -238t-219.5 -168.5t-334.5 -62.5q-182 0 -352 57.5t-301 168.5l207 256q93 -73 218.5 -119.5t233.5 -46.5q66 0 119.5 11.5t91 40t37.5 71.5q0 33 -19.5 59t-57 46t-83 37t-104.5 36q-9 3 -14 4l-203 68q-70 23 -131.5 60.5t-115 90.5t-84.5 126
t-31 157q0 129 77 233.5t214.5 164.5t308.5 60q164 0 315.5 -52.5t267.5 -155.5l-188 -238q-192 133 -400 133q-94 0 -159.5 -32t-65.5 -97q0 -28 19 -51t59 -42.5t79.5 -34t103.5 -34.5q7 -2 11 -3t10 -3t11 -4l201 -68q161 -53 257.5 -161t96.5 -269z" />
    <glyph glyph-name="uniE6A3" unicode="&#xff34;" 
d="M840 0v1229h-492v303h1352v-303h-494v-1229h-366z" />
    <glyph glyph-name="uniE6A4" unicode="&#xff35;" 
d="M1343 1532h367v-815q0 -742 -682 -742q-670 0 -670 742v815h359v-854q0 -207 80.5 -297t230.5 -90t232.5 90.5t82.5 296.5v854z" />
    <glyph glyph-name="uniE6A5" unicode="&#xff36;" 
d="M803 0l-518 1532h387l211 -703q15 -49 63.5 -220t79.5 -267h12q124 418 144 487l209 703h372l-522 -1532h-438z" />
    <glyph glyph-name="uniE6A6" unicode="&#xff37;" 
d="M334 0l-334 1532h375l123 -684q30 -179 88 -483h8q11 48 53.5 220t63.5 263l172 684h305l176 -692q19 -79 57.5 -236.5t57.5 -238.5h12q14 94 41 259.5t35 215.5l129 692h348l-320 -1532h-464l-158 664q-41 167 -74 362h-10q-38 -223 -72 -362l-155 -664h-457z" />
    <glyph glyph-name="uniE6A7" unicode="&#xff38;" 
d="M315 0l484 778l-453 754h408l149 -281q21 -40 68 -125.5t65 -119.5h8q20 38 63 122t64 123l144 281h385l-453 -758l484 -774h-416l-166 297q-86 156 -135 250h-8q-12 -23 -62 -113.5t-74 -136.5l-157 -297h-398z" />
    <glyph glyph-name="uniE6A8" unicode="&#xff39;" 
d="M842 0v549l-518 983h389l161 -338q76 -178 148 -340h8q108 235 156 340l157 338h383l-520 -983v-549h-364z" />
    <glyph glyph-name="uniE6A9" unicode="&#xff3a;" 
d="M418 0v221l741 1008h-684v303h1151v-219l-743 -1006h766v-307h-1231z" />
    <glyph glyph-name="uniE6B0" unicode="&#xff41;" 
d="M457 328q0 198 177.5 301t582.5 127q-8 74 -69 113.5t-171 39.5q-77 0 -159.5 -26.5t-190.5 -79.5l-131 239q279 156 551 156q255 0 395.5 -132.5t140.5 -401.5v-664h-297l-26 129h-11q-206 -154 -409 -154q-175 0 -279 101t-104 252zM805 356q0 -102 151 -102
q127 0 261 104v179q-156 -7 -250 -33t-128 -62t-34 -86z" />
    <glyph glyph-name="uniE6B1" unicode="&#xff42;" 
d="M1657 604q0 -147 -41 -267t-112 -198.5t-167 -121t-207 -42.5q-217 0 -356 148h-10l-33 -123h-285v1638h367v-395l-10 -174q165 127 362 127q226 0 359 -161t133 -431zM813 352q93 -78 219 -78q104 0 177 80t73 242q0 150 -63 225.5t-175 75.5q-133 0 -231 -98v-447z" />
    <glyph glyph-name="uniE6B2" unicode="&#xff43;" 
d="M471 586q0 142 55.5 259t149.5 192.5t216.5 117t258.5 41.5t249 -41.5t189 -114.5l-168 -225q-116 82 -250 82q-145 0 -235 -85.5t-90 -225.5q0 -141 88 -226.5t227 -85.5q141 0 301 107l148 -234q-102 -86 -231 -129t-255 -43q-186 0 -333 71.5t-233.5 211.5t-86.5 328z
" />
    <glyph glyph-name="uniE6B3" unicode="&#xff44;" 
d="M1268 109q-125 -134 -361 -134q-227 0 -372.5 166t-145.5 441q0 112 30 211t81 171.5t117 125.5t141 79.5t151 26.5q202 0 338 -123l-16 174l2 391h366v-1638h-292l-31 109h-8zM764 588q0 -156 72 -235t178 -79q142 0 219 103v450q-94 70 -227 70q-101 0 -171.5 -78.5
t-70.5 -230.5z" />
    <glyph glyph-name="uniE6B4" unicode="&#xff45;" 
d="M424 586q0 139 53 256t141 193.5t201.5 118.5t235.5 42q138 0 248 -43t180.5 -119.5t107.5 -178t37 -220.5q0 -42 -16 -158h-815q18 -115 112.5 -169t235.5 -54q154 0 317 78l119 -226q-100 -65 -230 -98t-257 -33q-190 0 -340.5 71.5t-240 211.5t-89.5 328zM795 719h501
q0 93 -58 148t-177 55q-101 0 -174 -51.5t-92 -151.5z" />
    <glyph glyph-name="uniE6B5" unicode="&#xff46;" 
d="M1698 1602l-72 -269q-120 43 -240 43q-107 0 -158.5 -43.5t-51.5 -138.5v-23h393v-286h-393v-885h-365v885h-305v274l305 12v23q0 100 30.5 183.5t93 148t166 101t240.5 36.5q168 0 357 -61z" />
    <glyph glyph-name="uniE6B6" unicode="&#xff47;" 
d="M412 -195q0 140 182 230v10q-119 70 -119 201q0 57 40 115t106 104v8q-71 50 -116.5 127.5t-45.5 173.5q0 103 43.5 185t117.5 133.5t168.5 78.5t200.5 27q128 0 213 -27h475v-264h-229q47 -67 47 -143q0 -100 -38.5 -176.5t-108 -123t-160 -70t-199.5 -23.5
q-99 0 -178 20q-26 -20 -36.5 -36.5t-10.5 -43.5q0 -44 45 -63t147 -19h232q236 0 357.5 -72.5t121.5 -228.5q0 -185 -192 -302.5t-512 -117.5q-120 0 -218 17t-173.5 52t-117.5 93t-42 135zM989 588q78 0 131.5 49.5t53.5 136.5q0 85 -53.5 133.5t-131.5 48.5
q-81 0 -133.5 -48t-52.5 -134q0 -88 52.5 -137t133.5 -49zM709 -139q0 -62 82.5 -94.5t226.5 -32.5q133 0 218 38t85 97q0 48 -48 65t-151 17h-159q-119 0 -179 14q-75 -49 -75 -104z" />
    <glyph glyph-name="uniE6B7" unicode="&#xff48;" 
d="M451 0v1638h362v-395l-16 -207q191 160 420 160q190 0 291.5 -121.5t101.5 -353.5v-721h-365v676q0 120 -48.5 163.5t-133.5 43.5q-130 0 -250 -105v-778h-362z" />
    <glyph glyph-name="uniE6B8" unicode="&#xff49;" 
d="M967 0v885h-430v286h798v-1171h-368zM1135 1335q-98 0 -160 56t-62 145q0 88 62 144.5t160 56.5t159.5 -56.5t61.5 -144.5q0 -89 -61.5 -145t-159.5 -56z" />
    <glyph glyph-name="uniE6B9" unicode="&#xff4a;" 
d="M500 885v286h827v-1089q0 -539 -551 -539q-194 0 -364 80l106 262q123 -55 236 -55q117 0 163 55t46 183v817h-463zM1143 1335q-98 0 -159.5 56t-61.5 145q0 88 61.5 144.5t159.5 56.5t159.5 -56.5t61.5 -144.5q0 -89 -61.5 -145t-159.5 -56z" />
    <glyph glyph-name="uniE6BA" unicode="&#xff4b;" 
d="M477 0v1638h354v-921h9l430 448h401l-463 -477l504 -688h-403l-320 451l-158 -164v-287h-354z" />
    <glyph glyph-name="uniE6BB" unicode="&#xff4c;" 
d="M457 1352v286h698v-1181q0 -99 53 -143t133 -44q79 0 177 35l81 -268q-8 -2 -35 -10t-35 -10t-31.5 -8.5t-33.5 -8.5t-31.5 -7t-34 -6.5t-33.5 -4.5t-38 -4t-38.5 -2t-43.5 -1q-220 0 -337 133.5t-117 362.5v881h-334z" />
    <glyph glyph-name="uniE6BC" unicode="&#xff4d;" 
d="M74 0v1171h297l24 -153h11q97 84 193.5 130t221.5 46q250 0 355 -193q100 90 200 141.5t221 51.5q388 0 388 -473v-721h-363v676q0 113 -45.5 160t-130.5 47q-119 0 -236 -105v-778h-366v676q0 116 -41.5 161.5t-132.5 45.5q-49 0 -113 -27t-121 -78v-778h-362z" />
    <glyph glyph-name="uniE6BD" unicode="&#xff4e;" 
d="M451 0v1171h290l29 -151h8q100 82 204 129t228 47q205 0 307.5 -124t102.5 -351v-721h-383v676q0 115 -47.5 161t-134.5 46q-66 0 -122.5 -25.5t-121.5 -79.5v-778h-360z" />
    <glyph glyph-name="uniE6BE" unicode="&#xff4f;" 
d="M1024 -25q-120 0 -231.5 42t-198.5 118.5t-139 193.5t-52 257q0 141 52 258t139 193t198 117.5t232 41.5t232 -41.5t198 -117.5t139 -193t52 -258q0 -140 -52 -257t-139 -193.5t-198.5 -118.5t-231.5 -42zM1024 274q123 0 184.5 82.5t61.5 229.5q0 146 -61.5 228.5
t-184.5 82.5t-184.5 -82.5t-61.5 -228.5q0 -147 61.5 -229.5t184.5 -82.5z" />
    <glyph glyph-name="uniE6BF" unicode="&#xff50;" 
d="M449 -424v1595h299l22 -118h8q82 64 184 103.5t203 39.5q236 0 364 -159.5t128 -434.5q0 -146 -40.5 -265.5t-112 -198t-168.5 -121t-210 -42.5q-197 0 -327 115l12 -176v-338h-362zM811 799v-445q87 -80 221 -80q109 0 179.5 79.5t70.5 242.5q0 301 -235 301
q-132 0 -236 -98z" />
    <glyph glyph-name="uniE6C0" unicode="&#xff51;" 
d="M1235 -424v350l14 168q-132 -119 -336 -119q-239 0 -380.5 163t-141.5 444q0 140 44.5 257.5t118.5 194.5t168.5 119.5t195.5 42.5q203 0 356 -147h14l33 122h278v-1595h-364zM766 588q0 -158 67.5 -236t176.5 -78q148 0 225 99v454q-42 35 -107.5 52.5t-126.5 17.5
q-45 0 -85.5 -18.5t-74.5 -55t-54.5 -97.5t-20.5 -138z" />
    <glyph glyph-name="uniE6C1" unicode="&#xff52;" 
d="M582 0v1171h299l28 -253h9q83 139 204.5 208.5t263.5 69.5q83 0 135 -10t105 -35l-90 -307q-45 14 -69 20.5t-60 11.5t-76 5q-117 0 -217 -67.5t-168 -213.5v-600h-364z" />
    <glyph glyph-name="uniE6C2" unicode="&#xff53;" 
d="M438 152l162 225q222 -135 420 -135q211 0 211 90q0 24 -20.5 44t-68.5 39.5t-91.5 33t-124.5 36.5q-418 114 -418 344q0 165 149 266t400 101q263 0 512 -158l-164 -219q-192 111 -338 111q-103 0 -149 -21t-46 -63q0 -48 108 -87q44 -16 185 -54q74 -20 130.5 -39.5
t115 -50.5t96.5 -66.5t62 -86t24 -110.5q0 -165 -154 -271t-429 -106q-150 0 -304.5 49.5t-267.5 127.5z" />
    <glyph glyph-name="uniE6C3" unicode="&#xff54;" 
d="M717 494v391h-289v274l307 12l47 310h301v-310h486v-286h-486v-387q0 -128 58 -183t182 -55q90 0 225 41l68 -264q-222 -62 -387 -62q-512 0 -512 519z" />
    <glyph glyph-name="uniE6C4" unicode="&#xff55;" 
d="M1257 166q-181 -191 -423 -191q-191 0 -290.5 126.5t-99.5 349.5v720h365v-675q0 -114 48 -160.5t132 -46.5q138 0 240 119v763h364v-1171h-295l-30 166h-11z" />
    <glyph glyph-name="uniE6C5" unicode="&#xff56;" 
d="M821 0l-440 1171h367l174 -540q28 -88 106 -361h10q56 209 105 361l174 540h350l-426 -1171h-420z" />
    <glyph glyph-name="uniE6C6" unicode="&#xff57;" 
d="M410 0l-338 1171h360l129 -528q59 -271 78 -348h12q52 227 88 342l133 534h316l141 -528q6 -23 41 -151t53 -197h13q13 58 33 174t34 174l127 528h338l-317 -1171h-426l-113 444q-77 300 -88 349h-10q-10 -47 -82 -349l-107 -444h-415z" />
    <glyph glyph-name="uniE6C7" unicode="&#xff58;" 
d="M397 0l402 610l-375 561h391l113 -182q14 -26 55.5 -95t60.5 -106h11q74 158 94 203l96 180h379l-379 -604l404 -567h-392l-127 184q-22 35 -67.5 103t-65.5 100h-8q-16 -34 -52 -101.5t-52 -101.5l-107 -184h-381z" />
    <glyph glyph-name="uniE6C8" unicode="&#xff59;" 
d="M1667 1171l-448 -1173q-52 -118 -102 -197t-115.5 -137.5t-148.5 -85.5t-191 -27q-98 0 -191 27l70 275q43 -17 90 -17q183 0 231 139l19 60l-500 1136h369l186 -489q18 -47 36.5 -100t41.5 -124t35 -106h10l98 330l162 489h348z" />
    <glyph glyph-name="uniE6C9" unicode="&#xff5a;" 
d="M532 0v195l535 692h-479v284h946v-194l-537 -692h557v-285h-1022z" />
  </font>
</defs>
</svg>
