<?xml version="1.0" encoding="utf-8"?>
<!-- Generator: Adobe Illustrator 25.0.0, SVG Export Plug-In . SVG Version: 6.00 Build 0)  -->
<svg version="1.0" id="Layer_1" xmlns="http://www.w3.org/2000/svg" xmlns:xlink="http://www.w3.org/1999/xlink" x="0px" y="0px"
	 viewBox="0 0 960 560" style="enable-background:new 0 0 960 560;" xml:space="preserve">
<style type="text/css">
	.st0{fill:#FFFFFF;}
</style>
<g>
	<path class="st0" d="M696.82,281.68c-3.62,0-6.96,0.61-10.06,1.67c5.74-0.3,11.48-0.58,17.22-0.84
		C701.72,281.97,699.34,281.68,696.82,281.68z"/>
	<path class="st0" d="M451.77,301.7c-11.6,1.01-23.23,1.96-34.86,2.86c0.38,0.94,0.73,1.89,1.06,2.87
		c2.28,6.75,3.45,14.41,3.45,22.42c0,28.03-12.59,48.85-34.63,48.85c-21.75,0-35.05-19.91-35.05-48.14c0-5.14,0.44-10.03,1.29-14.61
		c0.46-2.49,1.07-4.86,1.77-7.15c-11.75,0.69-23.5,1.32-35.25,1.88c-0.76,3.32-1.32,6.75-1.7,10.27c-0.36,3.33-0.56,6.74-0.56,10.22
		c0,41.11,25.15,73.44,67.89,73.44c42.14,0,70.69-28.57,70.69-75.87c0-8.91-1.22-17.49-3.59-25.43
		C452.11,302.78,451.94,302.24,451.77,301.7z"/>
	<path class="st0" d="M505.6,297.5v-0.84c-10.84,1.09-21.71,2.14-32.59,3.15v1.17v101.29h89.94v-27.32H505.6V297.5z"/>
	<path class="st0" d="M577.89,290.76v111.5h32.59V288.18v-3.45c-10.82,1.37-21.69,2.7-32.59,3.99V290.76z"/>
	<path class="st0" d="M736.76,267.03c-30.43,4.68-61.41,9.15-92.8,13.34c-1.47,1.83-2.85,3.75-4.14,5.74
		c-8,12.39-12.43,27.86-12.43,45.05c0,41.11,25.15,73.44,67.89,73.44c23.84,0,43.32-9.15,55.75-25.65
		c9.54-12.67,14.93-29.67,14.93-50.21C765.97,302.97,755.86,280.03,736.76,267.03z M696.9,378.7c-21.75,0-35.05-19.91-35.05-48.14
		c0-23.44,9.05-41.8,24.91-47.2c3.11-1.06,6.45-1.67,10.06-1.67c2.52,0,4.9,0.29,7.15,0.83c17.86,4.21,27.55,24.28,27.55,47.34
		C731.52,357.88,718.93,378.7,696.9,378.7z"/>
	<path class="st0" d="M418.91,216.21c-3.19,17.28-6.22,34-8.47,50.08H410c-2.09-15.97-4.53-31.36-7.61-48.18l-8.31-43.89
		c-14.05,1.49-28.15,2.91-42.28,4.26l-7.9,37.74c-3.63,17.91-7.09,35.16-9.4,50.83h-0.45c-2.31-14.55-5.3-33.26-8.38-50.42
		l-6.48-35.18c-10.98,0.95-21.99,1.86-33,2.71l27.77,117.25h35.73l13.78-61.96c3.44-14.55,5.77-28.22,8.2-44.46h0.43
		c1.82,16.34,4.07,29.94,6.95,44.35l12.27,62.06h35.2l34.78-134.86c-11.07,1.35-22.19,2.67-33.34,3.94L418.91,216.21z"/>
	<path class="st0" d="M505.6,240.44h53.04V214H505.6v-30.03h56.21v-26.7h-31.9c-18.81,2.6-37.79,5.11-56.9,7.51v132.17
		c28.78-6.47,59.51-13.15,91.88-19.88v-2.35H505.6V240.44z"/>
	<path class="st0" d="M656.08,223.86v-0.55c16.24-6.03,23.67-17.98,23.67-30.66c0-13.22-7.09-23.05-17.18-28.42
		c-10.54-6.12-22.76-8.09-42.63-8.09c-16.32,0-33.49,1.44-42.06,3.1v114.18c10.6-2.17,21.37-4.35,32.29-6.52V237.7h11.14
		c16.25,0.01,29.18,5.78,29.18,20.21c0,0.4-0.05,0.77-0.06,1.16c11.13-2.13,22.4-4.26,33.81-6.37
		C681.72,237.79,670.53,227.65,656.08,223.86z M620.75,214.44h-10.57v-33.6c2.67-0.55,6.69-1,13.82-1
		c14.72,0,23.03,5.78,23.03,16.72C647.02,207.28,638.01,214.44,620.75,214.44z"/>
	<path class="st0" d="M314.73,153.27h-34.91l6.37,26.89c11.01-0.85,22.01-1.76,33-2.71L314.73,153.27z"/>
	<path class="st0" d="M430.57,153.27l-2.61,13.22c11.15-1.27,22.27-2.59,33.34-3.94l2.39-9.28H430.57z"/>
	<path class="st0" d="M390.87,153.27h-34.63l-4.44,21.21c14.13-1.35,28.23-2.77,42.28-4.26L390.87,153.27z"/>
	<path class="st0" d="M473.01,153.27v7.51c19.11-2.4,38.08-4.9,56.9-7.51H473.01z"/>
	<path class="st0" d="M299.56,284.82v-26.7h-58.14c-4.27,0-7.66,3.27-8.24,7.5c0,0.03-0.01,0.05-0.01,0.08
		c-1.37,9.62-5.67,18.03-13.68,21.87c-2.96,1.42-4.94,4.29-4.94,7.57v42v65.12h32.59v-57.95h51.86v-20.56v-5.88h-51.86v-33.05
		H299.56z"/>
	<path class="st0" d="M228.27,258.25c0,11.47-4.38,21.83-15.29,25.51c-0.54,0.18,10.56-12.51-2.76-12.51
		c-9.39,0-15.96-3.61-15.96-13c0-9.39,7.61-17,17-17C220.66,241.25,228.27,248.86,228.27,258.25z"/>
</g>
</svg>
