<?xml version="1.0" encoding="utf-8"?>
<!-- Generator: Adobe Illustrator 24.0.0, SVG Export Plug-In . SVG Version: 6.00 Build 0)  -->
<svg version="1.0" id="Layer_1" xmlns="http://www.w3.org/2000/svg" xmlns:xlink="http://www.w3.org/1999/xlink" x="0px" y="0px"
	 viewBox="0 0 120 120" style="enable-background:new 0 0 120 120;" xml:space="preserve">
<style type="text/css">
	.st0{fill:#FFF30D;}
</style>
<g>
	<g>
		<path class="st0" d="M4.26,82.19c0.79,1.97,1.67,3.9,2.65,5.76c0.7-0.48,1.3-0.88,1.76-1.18C6.93,85.87,5.46,84.33,4.26,82.19z"/>
	</g>
	<g>
		<path class="st0" d="M53.17,36.07c0-1.03-0.3-1.9-0.9-2.61c-0.6-0.71-1.37-1.06-2.32-1.06c-0.87,0-1.59,0.33-2.16,0.98
			c-0.57,0.65-0.85,1.47-0.85,2.44c0,2.01,0.65,4.67,1.95,7.98C51.75,41.1,53.17,38.52,53.17,36.07z"/>
	</g>
	<g>
		<path class="st0" d="M14.32,80.62c1.79,0,3.02-1.6,3.69-4.81c0.67-3.2,1-9.22,1-18.04c0-9.5-0.31-15.94-0.92-19.3
			c-0.61-3.37-1.89-5.05-3.85-5.05s-3.22,1.83-3.81,5.48c-0.58,3.65-0.88,9.92-0.88,18.79c0,8.88,0.33,14.92,1,18.12
			C11.22,79.02,12.48,80.62,14.32,80.62z"/>
	</g>
	<g>
		<polygon class="st0" points="89.41,31.6 86.79,58.96 93.02,58.96 90.39,31.6 		"/>
	</g>
	<g>
		<path class="st0" d="M60,0C39.49,0,21.4,10.29,10.58,25.99c1.11-0.44,2.31-0.67,3.58-0.67c4.48,0,7.99,2.62,10.53,7.86
			c2.54,5.24,3.81,13.07,3.81,23.5c0,18.14-3.56,28.59-10.67,31.36c3.72,2.12,6.61,3.18,8.67,3.18c0.52,0,0.99-0.03,1.43-0.08
			l-1.83,7.25c-1.98,0-3.56-0.24-4.74-0.73c-1.18-0.49-2.69-1.34-4.54-2.57c-2.77-1.85-4.93-2.77-6.47-2.77
			c-0.28,0-0.56,0.03-0.84,0.07C20.17,108.99,38.79,120,60,120c33.14,0,60-26.86,60-60S93.14,0,60,0z M68.44,58.35h-2.93
			c-0.49,7.14-1.94,13.12-4.34,17.93l1.53,4.02h5.74v7.41h-11.5l-1.16-3.01c-2.2,2.34-4.62,3.5-7.25,3.5
			c-3.94,0-7.32-1.98-10.14-5.95c-2.82-3.96-4.24-8.78-4.24-14.46c0-6.65,2.91-12.5,8.72-17.54c-2.23-5.19-3.35-9.61-3.35-13.25
			c0-3.45,1-6.26,2.99-8.43c2-2.17,4.58-3.26,7.76-3.26c2.93,0,5.38,0.96,7.33,2.87s2.93,4.32,2.93,7.23c0,2.74-0.78,5.54-2.34,8.41
			c-1.56,2.86-3.68,5.43-6.34,7.7l5.49,15.1h0.16c1.13-3.78,1.69-9,1.69-15.69h9.24V58.35z M91.16,87.71V80.3h3.9l-1.5-13.93h-7.33
			l-1.5,13.93h3.9v7.41H72.23V80.3h3.83l6.76-46.54h-4.27v-7.41h22.72v7.41h-4.27l6.76,46.54h3.83v7.41H91.16z"/>
	</g>
	<g>
		<path class="st0" d="M42.22,65.53c0,2.9,0.77,6.1,2.31,9.6c1.54,3.5,3.26,5.25,5.16,5.25c1.52,0,2.68-0.92,3.49-2.77l-7.43-19.75
			C43.38,59.74,42.2,62.3,42.22,65.53z"/>
	</g>
</g>
</svg>
